<?xml version="1.0" encoding="UTF-8"?>
<svg width="426px" height="502px" viewBox="0 0 426 502" version="1.1" xmlns="http://www.w3.org/2000/svg" xmlns:xlink="http://www.w3.org/1999/xlink">
    <title>Fill 6</title>
    <g id="Page-1" stroke="none" stroke-width="1" fill="none" fill-rule="evenodd">
        <g id="shutterstock_1737650285" transform="translate(-1340.000000, -1290.000000)" fill="#262626">
            <path d="M1734.64,1738.39 L1564.21,1567.97 C1561.15,1564.91 1557.14,1563.38 1553.14,1563.38 C1549.13,1563.38 1545.12,1564.91 1542.06,1567.97 L1371.64,1738.39 L1371.64,1321.6 L1734.64,1321.6 L1734.64,1738.39 Z M1750.3,1290.28 L1355.97,1290.28 C1347.33,1290.28 1340.31,1297.29 1340.31,1305.94 L1340.31,1776.2 C1340.31,1782.54 1344.13,1788.25 1349.98,1790.67 C1355.83,1793.1 1362.57,1791.76 1367.05,1787.28 L1553.14,1601.19 L1739.22,1787.28 C1742.22,1790.27 1746.22,1791.87 1750.3,1791.87 C1752.32,1791.87 1754.35,1791.47 1756.29,1790.67 C1762.14,1788.25 1765.96,1782.54 1765.96,1776.2 L1765.96,1305.94 C1765.96,1297.29 1758.95,1290.28 1750.3,1290.28 L1750.3,1290.28 Z" id="Fill-6"></path>
        </g>
    </g>
</svg>