<?xml version="1.0" encoding="UTF-8"?>
<svg width="460px" height="466px" viewBox="0 0 460 466" version="1.1" xmlns="http://www.w3.org/2000/svg" xmlns:xlink="http://www.w3.org/1999/xlink">
    <title>Fill 4</title>
    <g id="Page-1" stroke="none" stroke-width="1" fill="none" fill-rule="evenodd">
        <g id="shutterstock_1737650285" transform="translate(-1323.000000, -708.000000)" fill="#262626">
            <path d="M1721.55,1051.81 L1744.13,1135.14 L1661.04,1109.96 C1656.91,1108.42 1652.17,1108.65 1648.05,1110.9 C1619.13,1126.75 1586.31,1135.13 1553.14,1135.13 C1500.29,1135.13 1450.61,1114.55 1413.24,1077.19 C1375.88,1039.82 1355.3,990.139 1355.3,937.294 C1355.3,884.449 1375.88,834.768 1413.24,797.402 C1450.61,760.036 1500.29,739.457 1553.14,739.457 C1605.98,739.457 1655.66,760.035 1693.03,797.402 C1730.39,834.768 1750.97,884.45 1750.97,937.294 C1750.97,973.105 1741.29,1008.21 1722.96,1038.8 C1720.53,1042.85 1720.14,1047.61 1721.55,1051.81 Z M1781.75,1154.23 L1753.24,1049 C1772.27,1014.96 1782.29,976.493 1782.29,937.294 C1782.29,906.365 1776.23,876.352 1764.28,848.09 C1752.74,820.8 1736.22,796.294 1715.18,775.254 C1694.14,754.213 1669.63,737.692 1642.34,726.15 C1614.08,714.196 1584.07,708.135 1553.14,708.135 C1522.21,708.135 1492.19,714.196 1463.93,726.15 C1436.64,737.692 1412.14,754.213 1391.1,775.254 C1370.05,796.294 1353.53,820.8 1341.99,848.09 C1330.04,876.352 1323.98,906.365 1323.98,937.294 C1323.98,968.224 1330.04,998.237 1341.99,1026.5 C1353.53,1053.79 1370.05,1078.29 1391.1,1099.34 C1412.14,1120.38 1436.64,1136.9 1463.93,1148.44 C1492.19,1160.39 1522.21,1166.45 1553.14,1166.45 C1589.3,1166.45 1625.12,1157.85 1657.16,1141.51 L1762.09,1173.31 C1763.59,1173.77 1765.12,1173.99 1766.63,1173.99 C1770.65,1173.99 1774.58,1172.44 1777.54,1169.56 C1781.63,1165.6 1783.24,1159.73 1781.75,1154.23 L1781.75,1154.23 Z" id="Fill-4"></path>
        </g>
    </g>
</svg>