<?xml version="1.0" encoding="UTF-8"?>
<svg width="491px" height="424px" viewBox="0 0 491 424" version="1.1" xmlns="http://www.w3.org/2000/svg" xmlns:xlink="http://www.w3.org/1999/xlink">
    <title>Fill 5</title>
    <g id="Page-1" stroke="none" stroke-width="1" fill="none" fill-rule="evenodd">
        <g id="shutterstock_1737650285" transform="translate(-717.000000, -1315.000000)" fill="#262626">
            <path d="M960.762,1680.43 L924.643,1499.24 L1147.77,1374.01 L960.762,1680.43 Z M773.463,1346.7 L1132.44,1346.7 L909.314,1471.92 L773.463,1346.7 Z M1207.93,1329.51 C1207.91,1329.27 1207.87,1329.02 1207.83,1328.77 C1207.81,1328.6 1207.79,1328.42 1207.75,1328.25 C1207.7,1327.98 1207.64,1327.71 1207.58,1327.44 C1207.55,1327.32 1207.53,1327.2 1207.5,1327.08 C1207.49,1327.04 1207.48,1327.02 1207.47,1326.98 C1207.4,1326.71 1207.31,1326.44 1207.22,1326.16 C1207.17,1326.02 1207.13,1325.88 1207.08,1325.74 C1206.99,1325.48 1206.88,1325.23 1206.78,1324.98 C1206.72,1324.83 1206.66,1324.68 1206.59,1324.53 C1206.49,1324.31 1206.38,1324.1 1206.27,1323.88 C1206.18,1323.71 1206.1,1323.54 1206.01,1323.38 C1205.91,1323.2 1205.79,1323.02 1205.68,1322.85 C1205.56,1322.65 1205.45,1322.46 1205.32,1322.27 C1205.23,1322.13 1205.12,1321.99 1205.01,1321.84 C1204.86,1321.63 1204.71,1321.43 1204.55,1321.23 C1204.45,1321.1 1204.34,1320.98 1204.24,1320.86 C1204.06,1320.65 1203.88,1320.44 1203.69,1320.25 C1203.67,1320.22 1203.65,1320.19 1203.62,1320.17 C1203.53,1320.07 1203.43,1319.99 1203.33,1319.89 C1203.15,1319.71 1202.96,1319.52 1202.76,1319.35 C1202.62,1319.22 1202.48,1319.11 1202.33,1318.99 C1202.15,1318.83 1201.96,1318.68 1201.77,1318.54 C1201.61,1318.42 1201.45,1318.3 1201.28,1318.19 C1201.1,1318.06 1200.91,1317.93 1200.72,1317.81 C1200.55,1317.7 1200.38,1317.6 1200.21,1317.5 C1200.01,1317.39 1199.81,1317.27 1199.61,1317.17 C1199.44,1317.08 1199.27,1317 1199.1,1316.92 C1198.88,1316.81 1198.66,1316.71 1198.44,1316.62 C1198.28,1316.55 1198.12,1316.49 1197.96,1316.43 C1197.72,1316.33 1197.48,1316.24 1197.23,1316.16 C1197.08,1316.12 1196.93,1316.07 1196.78,1316.03 C1196.52,1315.95 1196.26,1315.88 1196,1315.81 C1195.85,1315.78 1195.7,1315.75 1195.55,1315.72 C1195.28,1315.66 1195.02,1315.61 1194.75,1315.57 C1194.59,1315.54 1194.43,1315.53 1194.27,1315.51 C1194.01,1315.47 1193.75,1315.44 1193.48,1315.42 C1193.31,1315.41 1193.13,1315.41 1192.96,1315.4 C1192.75,1315.39 1192.55,1315.38 1192.35,1315.38 L733.366,1315.38 C726.916,1315.38 721.125,1319.33 718.778,1325.34 C716.432,1331.35 718.009,1338.18 722.751,1342.55 L892.699,1499.21 L937.883,1725.88 C939.144,1732.21 944.154,1737.11 950.505,1738.24 C951.421,1738.4 952.337,1738.48 953.245,1738.48 C958.636,1738.48 963.733,1735.69 966.609,1730.98 L1205.72,1339.2 C1205.83,1339.02 1205.92,1338.83 1206.02,1338.65 C1206.1,1338.5 1206.19,1338.36 1206.26,1338.21 C1206.39,1337.97 1206.5,1337.72 1206.62,1337.47 C1206.68,1337.33 1206.74,1337.19 1206.8,1337.06 C1206.91,1336.79 1207.01,1336.53 1207.1,1336.26 C1207.15,1336.13 1207.2,1336 1207.24,1335.86 C1207.33,1335.59 1207.4,1335.33 1207.47,1335.06 C1207.51,1334.91 1207.55,1334.77 1207.59,1334.63 C1207.65,1334.36 1207.7,1334.1 1207.75,1333.84 C1207.78,1333.68 1207.81,1333.52 1207.83,1333.36 C1207.87,1333.11 1207.9,1332.86 1207.92,1332.61 C1207.94,1332.43 1207.96,1332.25 1207.97,1332.08 C1207.99,1331.84 1207.99,1331.6 1208.00444,1331.36 C1208.00444,1331.17 1208.01,1330.98 1208.00444,1330.79 C1208.00444,1330.55 1207.98,1330.32 1207.97,1330.08 C1207.96,1329.89 1207.95,1329.7 1207.93,1329.51 L1207.93,1329.51 Z" id="Fill-5"></path>
        </g>
    </g>
</svg>